<svg xmlns="http://www.w3.org/2000/svg" version="1.1" xmlns:xlink="http://www.w3.org/1999/xlink" xmlns:svgjs="http://svgjs.dev/svgjs" width="2000" height="1680" viewBox="0 0 2000 1680"><g transform="matrix(1,0,0,1,1.5212832404386063,0.6801619433198312)"><svg viewBox="0 0 294 247" data-background-color="#ff851b" preserveAspectRatio="xMidYMid meet" height="1680" width="2000" xmlns="http://www.w3.org/2000/svg" xmlns:xlink="http://www.w3.org/1999/xlink"><g id="tight-bounds" transform="matrix(1,0,0,1,-0.22362863634447194,-0.09999999999999432)"><svg viewBox="0 0 294.44725727268894 247.2" height="247.2" width="294.44725727268894"><g><svg viewBox="0 0 395.52 332.0545244863748" height="247.2" width="294.44725727268894"><g transform="matrix(1,0,0,1,0,199.7264631799758)"><svg viewBox="0 0 395.52 132.32806130639904" height="132.32806130639904" width="395.52"><g id="textblocktransform"><svg viewBox="0 0 395.52 132.32806130639904" height="132.32806130639904" width="395.52" id="textblock"><g><svg viewBox="0 0 395.52 71.37143315937374" height="71.37143315937374" width="395.52"><g transform="matrix(1,0,0,1,0,0)"><svg width="395.52" viewBox="2.5 -35.5 249.08 44.95" height="71.37143315937374" data-palette-color="#5e360f"><path d="M12.3-21.1L18.75-21.1Q19.7-21.1 19.7-17.6L19.7-17.6Q19.7-16.55 19.48-15.13 19.25-13.7 18.65-13.7L18.65-13.7 12.3-13.7 12.3-8.7 21.5-8.7Q22.35-8.7 22.65-6.5L22.65-6.5Q22.8-5.55 22.8-4.48 22.8-3.4 22.5-1.7 22.2 0 21.5 0L21.5 0 4.4 0Q2.5 0 2.5-1.55L2.5-1.55 2.5-33.7Q2.5-35 3.65-35L3.65-35 21.55-35Q22.6-35 22.6-30.58 22.6-26.15 21.55-26.15L21.55-26.15 12.3-26.15 12.3-21.1ZM31.4-0.6L24.95-24.85Q24.8-25.25 29.62-25.25 34.45-25.25 34.45-25L34.45-25 38.05-8 40.75-24.75Q40.9-25.2 45.7-25.2L45.7-25.2Q50.55-25.2 50.4-24.8L50.4-24.8 43.35-0.35Q43 0.15 37.4 0.15 31.8 0.15 31.4-0.6L31.4-0.6ZM71.85-1.35L71.85-1.35Q68.7 0.5 63.75 0.5 58.8 0.5 55.4-2.88 52-6.25 52-12.23 52-18.2 55.27-21.85 58.55-25.5 63.55-25.5 68.55-25.5 71.27-22.95 74-20.4 74-16.75L74-16.75Q74-8.65 64.7-8.65L64.7-8.65 61.25-8.65Q61.25-7.15 62.07-6.58 62.9-6 64.5-6L64.5-6Q68-6 71.15-7.6L71.15-7.6Q71.2-7.65 71.6-6.9L71.6-6.9Q72.8-4.75 72.8-3.28 72.8-1.8 71.85-1.35ZM65.6-15.8L65.6-15.8Q65.6-17.9 63.55-17.9L63.55-17.9Q62.6-17.9 61.92-17.32 61.25-16.75 61.25-15.65L61.25-15.65 61.25-14.1 63.95-14.1Q65.6-14.1 65.6-15.8ZM88.19-14L88.19-0.05Q88.19 0.3 83.64 0.3L83.64 0.3Q79.09 0.2 79.09-0.1L79.09-0.1 79.09-16.7 77.74-16.7Q76.94-16.7 76.47-17.68 75.99-18.65 75.99-20.1L75.99-20.1Q75.99-25.5 79.19-25.5L79.19-25.5Q81.44-25.5 82.94-24.13 84.44-22.75 84.44-21L84.44-21Q85.49-23.05 87.27-24.28 89.04-25.5 90.89-25.5L90.89-25.5Q93.79-25.5 94.39-24L94.39-24Q94.54-23.6 94.54-22.83 94.54-22.05 94.07-20.05 93.59-18.05 93.09-17.15 92.59-16.25 92.49-16.25 92.39-16.25 91.57-16.63 90.74-17 90.09-17L90.09-17Q88.19-17 88.19-14L88.19-14ZM103.79-2L95.29-24.75Q95.29-25.3 99.87-25.3 104.44-25.3 104.59-24.8L104.59-24.8 108.19-13 111.64-24.9Q111.84-25.3 114.74-25.3L114.74-25.3Q121.39-25.3 121.09-24.65L121.09-24.65 109.34 8.8Q109.29 9.1 106.62 9.1 103.94 9.1 101.64 8.93 99.34 8.75 99.44 8.5L99.44 8.5 103.79-2ZM144.64-9.5L144.64-9.5 124.89-9.5Q123.99-9.5 123.59-10.95L123.59-10.95Q123.39-11.7 123.39-12.4 123.39-13.1 123.59-13.85L123.59-13.85Q123.99-15.3 124.89-15.3L124.89-15.3 144.64-15.3Q145.54-15.3 145.94-13.85L145.94-13.85Q146.14-13.1 146.14-12.4 146.14-11.7 145.94-10.95L145.94-10.95Q145.54-9.5 144.64-9.5ZM151.69-12.2L151.69-12.2Q152.64-11.45 154.96-10.15 157.29-8.85 159.41-8.85 161.54-8.85 161.54-10.5L161.54-10.5Q161.54-11.25 160.94-11.83 160.34-12.4 158.74-13.15 157.14-13.9 156.34-14.33 155.54-14.75 154.21-15.73 152.89-16.7 152.19-17.75L152.19-17.75Q150.19-20.6 150.19-25 150.19-29.4 153.46-32.43 156.74-35.45 162.04-35.45L162.04-35.45Q165.64-35.45 168.69-34.68 171.74-33.9 171.84-32.65L171.84-32.65Q171.84-32.5 171.84-32.35L171.84-32.35Q171.84-30.6 170.74-27.93 169.64-25.25 169.19-24.95L169.19-24.95Q165.99-26.6 163.46-26.6 160.94-26.6 160.94-24.8L160.94-24.8Q160.94-23.7 162.79-22.85L162.79-22.85Q163.19-22.65 163.94-22.3 164.69-21.95 165.66-21.48 166.64-21 167.76-20.28 168.89-19.55 170.19-18.35L170.19-18.35Q172.84-15.85 172.84-11.75L172.84-11.75Q172.84-6.4 169.89-3 166.94 0.4 160.79 0.5L160.79 0.5Q157.79 0.5 155.36 0 152.94-0.5 151.14-1.95 149.34-3.4 149.34-5.45 149.34-7.5 150.09-9.53 150.84-11.55 151.69-12.2ZM185.03-16.55L185.03-0.35Q185.03 0.1 180.86 0.1 176.68 0.1 176.68-0.6L176.68-0.6 176.68-34.85Q176.68-35.2 178.23-35.35 179.78-35.5 180.83-35.5L180.83-35.5Q185.03-35.5 185.03-34.6L185.03-34.6 185.03-24.6Q187.83-25.45 189.28-25.45L189.28-25.45Q193.08-25.45 195.28-23.43 197.48-21.4 197.48-15.9L197.48-15.9 197.48-0.4Q197.48 0.05 193.58 0.05L193.58 0.05Q189.18-0.1 189.18-0.45L189.18-0.45 189.18-15.15Q189.18-17.6 187.58-17.6L187.58-17.6Q186.48-17.6 185.03-16.55L185.03-16.55ZM203.91-2.95Q200.78-6.4 200.78-12.5 200.78-18.6 203.91-22.05 207.03-25.5 212.33-25.5 217.63-25.5 220.73-22.05 223.83-18.6 223.83-12.5 223.83-6.4 220.73-2.95 217.63 0.5 212.33 0.5 207.03 0.5 203.91-2.95ZM212.36-17.15Q209.53-17.15 209.53-12.55 209.53-7.95 212.36-7.95 215.18-7.95 215.18-12.55 215.18-17.15 212.36-17.15ZM238.13 0L238.13 9.1Q238.13 9.45 233.85 9.45 229.58 9.45 229.58 9.1L229.58 9.1 229.58-16.65 227.88-16.65Q226.68-16.65 226.23-18.85L226.23-18.85Q226.08-19.55 226.08-20.65 226.08-21.75 226.78-23.25L226.78-23.25Q227.78-25.45 229.98-25.45L229.98-25.45Q231.43-25.45 232.65-24.78 233.88-24.1 234.35-23.53 234.83-22.95 234.83-22.85L234.83-22.85Q238.18-25.45 242.08-25.45 245.98-25.45 248.78-22.43 251.58-19.4 251.58-13.08 251.58-6.75 248.78-3.28 245.98 0.2 241.68 0.2L241.68 0.2Q239.73 0.2 238.13 0L238.13 0ZM240.18-16.7L240.18-16.7Q239.33-16.7 238.53-16.15L238.53-16.15 238.53-7.3Q239.38-7.2 239.9-7.2 240.43-7.2 240.73-7.2L240.73-7.2Q242.78-7.4 242.78-12.45L242.78-12.45Q242.78-16.7 240.18-16.7Z" opacity="1" transform="matrix(1,0,0,1,0,0)" fill="#000000" class="wordmark-text-0" data-fill-palette-color="primary" id="text-0"></path></svg></g></svg></g><g transform="matrix(1,0,0,1,82.23082936759117,88.22051561390606)"><svg viewBox="0 0 231.05834126481764 44.10754569249297" height="44.10754569249297" width="231.05834126481764"><g transform="matrix(1,0,0,1,0,0)"><svg width="231.05834126481764" viewBox="2 -35 233.87 44.65" height="44.10754569249297" data-palette-color="#a63b08"><path d="M13.75 0L2 0 2-34.1Q2-34.1 2.13-34.55 2.25-35 2.85-35L2.85-35 14.85-35Q14.85-33.15 14.83-32.3 14.8-31.45 14.63-31.18 14.45-30.9 14-30.9L14-30.9 6.55-30.9 6.55-4.1 14.6-4.1Q14.6-2.2 14.55-1.33 14.5-0.45 14.35-0.23 14.2 0 13.75 0L13.75 0ZM12.75-16.9L2.5-16.9 2.5-21.1 13.6-21.1Q13.6-18.5 13.5-17.7 13.4-16.9 12.75-16.9L12.75-16.9ZM23.2 0.3L23.2 0.3Q22.35 0.3 21.92-0.43 21.5-1.15 21.25-2.2L21.25-2.2 16.45-23.6Q16.3-24.35 16.47-24.6 16.65-24.85 17.72-24.93 18.8-25 21.35-25L21.35-25 22.7-17.25Q23.05-15.45 23.35-13.3 23.65-11.15 23.87-9.22 24.1-7.3 24.22-6.08 24.35-4.85 24.35-4.85L24.35-4.85 24.45-4.85Q24.45-4.85 24.57-6.08 24.7-7.3 24.9-9.22 25.1-11.15 25.4-13.3 25.7-15.45 26-17.3L26-17.3 27.15-24.05Q27.25-24.5 27.45-24.7 27.65-24.9 28.65-24.95 29.65-25 31.95-25L31.95-25 26.45 0.1Q25.8 0.2 24.8 0.25 23.8 0.3 23.2 0.3ZM41.04 0.5L41.04 0.5Q39.29 0.5 37.84 0 36.39-0.5 35.34-1.75 34.29-3 33.69-5.3 33.09-7.6 33.09-11.25L33.09-11.25Q33.09-15.9 33.84-18.73 34.59-21.55 35.84-23 37.09-24.45 38.69-24.98 40.29-25.5 41.94-25.5L41.94-25.5Q45.04-25.5 46.69-23.53 48.34-21.55 48.34-17.45L48.34-17.45Q48.34-15.7 48.19-13.9 48.04-12.1 47.69-10.75L47.69-10.75Q46.04-10.4 44.02-10.23 41.99-10.05 40.12-10 38.24-9.95 37.04-9.95 35.84-9.95 35.84-9.95L35.84-9.95 35.94-13.65Q35.94-13.65 36.79-13.63 37.64-13.6 38.94-13.6 40.24-13.6 41.52-13.73 42.79-13.85 43.64-14.1L43.64-14.1Q43.79-14.75 43.84-15.53 43.89-16.3 43.89-17L43.89-17Q43.84-19.6 43.32-20.55 42.79-21.5 41.39-21.5L41.39-21.5Q40.59-21.5 39.94-21 39.29-20.5 38.82-19.35 38.34-18.2 38.09-16.28 37.84-14.35 37.84-11.45L37.84-11.45Q37.84-9.3 38.07-7.85 38.29-6.4 38.77-5.55 39.24-4.7 40.07-4.33 40.89-3.95 42.04-3.95L42.04-3.95Q43.49-3.95 44.92-4.35 46.34-4.75 47.59-5.45L47.59-5.45Q47.84-4.8 47.92-3.93 47.99-3.05 47.99-2.35L47.99-2.35Q47.99-1.5 47.04-0.85 46.09-0.2 44.52 0.15 42.94 0.5 41.04 0.5ZM51.59 0L51.59 0 51.59-23.25Q52.99-24.25 54.74-24.88 56.49-25.5 58.44-25.5L58.44-25.5Q60.44-25.5 61.17-24.95 61.89-24.4 61.89-23.25L61.89-23.25Q61.89-22.85 61.79-22.1 61.69-21.35 61.39-20.6L61.39-20.6Q60.89-20.85 60.34-20.98 59.79-21.1 59.19-21.1L59.19-21.1Q58.49-21.1 57.72-20.85 56.94-20.6 56.29-20.1L56.29-20.1 56.24-0.9Q56.24-0.45 56.04-0.28 55.84-0.1 54.87-0.05 53.89 0 51.59 0ZM66.39 9.65L66.39 9.65Q63.94 9.65 63.02 9.05 62.09 8.45 62.09 7.5L62.09 7.5Q62.09 6.9 62.27 6.18 62.44 5.45 62.74 5L62.74 5Q63.24 5.3 64.14 5.53 65.04 5.75 65.99 5.75L65.99 5.75Q67.09 5.75 67.94 4.7 68.79 3.65 69.24 0.8L69.24 0.8 63.44-23.75Q63.29-24.4 63.41-24.65 63.54-24.9 64.54-24.95 65.54-25 67.89-25L67.89-25 70.19-14.15Q70.49-12.6 70.72-11 70.94-9.4 71.11-8 71.29-6.6 71.39-5.75 71.49-4.9 71.49-4.9L71.49-4.9Q71.49-4.9 71.56-5.75 71.64-6.6 71.81-7.98 71.99-9.35 72.22-10.98 72.44-12.6 72.64-14.2L72.64-14.2 74.44-23.7Q74.54-24.35 74.79-24.6 75.04-24.85 76.04-24.93 77.04-25 79.34-25L79.34-25 73.39 1.3Q72.64 4.45 71.74 6.3 70.84 8.15 69.56 8.9 68.29 9.65 66.39 9.65ZM90.79-12.1L81.49-12.1Q81.49-14.2 81.59-15.15 81.69-16.1 82.34-16.1L82.34-16.1 91.69-16.1Q91.69-14 91.56-13.05 91.44-12.1 90.79-12.1L90.79-12.1ZM108.44-35L100.99-11.45 98.29-11.45 90.69-34.3Q90.54-34.65 90.76-34.8 90.98-34.95 92.11-34.98 93.23-35 95.89-35L95.89-35 97.69-28.25Q97.98-27.15 98.36-25.68 98.73-24.2 99.04-22.7 99.34-21.2 99.56-19.98 99.79-18.75 99.79-18.05L99.79-18.05Q99.89-18.75 100.11-19.98 100.34-21.2 100.64-22.7 100.94-24.2 101.29-25.7 101.64-27.2 101.99-28.3L101.99-28.3 103.54-34.2Q103.64-34.6 103.89-34.75 104.14-34.9 105.14-34.95 106.14-35 108.44-35L108.44-35ZM97.39 0L97.39 0 97.39-17.5 101.94-17.5 101.94-0.9Q101.94-0.45 101.76-0.28 101.59-0.1 100.64-0.05 99.69 0 97.39 0ZM114.48 0.5L114.48 0.5Q112.53 0.5 111.06 0.03 109.58-0.45 108.58-1.8 107.58-3.15 107.11-5.73 106.63-8.3 106.63-12.5L106.63-12.5Q106.63-19.35 108.83-22.43 111.03-25.5 114.93-25.5L114.93-25.5Q117.58-25.5 119.31-24.43 121.03-23.35 121.86-20.55 122.68-17.75 122.68-12.65L122.68-12.65Q122.68-5.6 120.61-2.55 118.53 0.5 114.48 0.5ZM114.63-3.35L114.63-3.35Q115.53-3.35 116.21-4.05 116.88-4.75 117.31-6.75 117.73-8.75 117.73-12.6L117.73-12.6Q117.73-16.45 117.43-18.4 117.13-20.35 116.48-21 115.83-21.65 114.78-21.65L114.78-21.65Q113.83-21.65 113.11-20.95 112.38-20.25 111.98-18.25 111.58-16.25 111.58-12.45L111.58-12.45Q111.58-9.45 111.78-7.6 111.98-5.75 112.36-4.85 112.73-3.95 113.31-3.65 113.88-3.35 114.63-3.35ZM133.38 0.5L133.38 0.5Q130.43 0.5 128.81-0.4 127.18-1.3 126.53-3.08 125.88-4.85 125.88-7.55L125.88-7.55 125.88-24.1Q125.88-24.55 126.08-24.73 126.28-24.9 127.28-24.95 128.28-25 130.63-25L130.63-25 130.63-7.2Q130.63-5.85 130.86-5.03 131.08-4.2 131.68-3.83 132.28-3.45 133.43-3.45L133.43-3.45Q134.03-3.45 134.83-3.63 135.63-3.8 136.28-4.3L136.28-4.3 136.28-24.1Q136.28-24.55 136.48-24.73 136.68-24.9 137.63-24.95 138.58-25 140.83-25L140.83-25 140.83-1.35Q139.48-0.6 137.48-0.05 135.48 0.5 133.38 0.5ZM153.88-12.1L144.58-12.1Q144.58-14.2 144.68-15.15 144.78-16.1 145.43-16.1L145.43-16.1 154.78-16.1Q154.78-14 154.65-13.05 154.53-12.1 153.88-12.1L153.88-12.1ZM177.18 0.35L177.18 0.35Q176.18 0.35 175.6-0.43 175.03-1.2 174.73-2.6L174.73-2.6 172.68-11.9Q172.38-13.35 172.1-15.38 171.83-17.4 171.58-19.55 171.33-21.7 171.13-23.58 170.93-25.45 170.83-26.6 170.73-27.75 170.73-27.75L170.73-27.75 169.28-32.1Q169.18-32.85 169.43-33.13 169.68-33.4 170.33-33.4L170.33-33.4 173.28-33.4 176.53-16.65Q176.98-14.35 177.23-12.25 177.48-10.15 177.65-8.33 177.83-6.5 177.98-4.85L177.98-4.85 178.33-4.85Q178.48-7.35 178.78-10.53 179.08-13.7 179.58-16.65L179.58-16.65 182.38-33.7Q182.48-34.35 182.68-34.68 182.88-35 183.53-35L183.53-35 187.43-35 181.08 0.1Q180.23 0.2 179.68 0.25 179.13 0.3 178.6 0.33 178.08 0.35 177.18 0.35ZM163.08 0.3L163.08 0.3Q162.18 0.3 161.63-0.58 161.08-1.45 160.78-2.75L160.78-2.75Q160.38-4.85 159.8-7.9 159.23-10.95 158.55-14.45 157.88-17.95 157.28-21.35 156.68-24.75 156.18-27.55 155.68-30.35 155.38-32.05 155.08-33.75 155.08-33.75L155.08-33.75Q154.93-34.4 155.1-34.7 155.28-35 156.08-35L156.08-35 159.88-35 163.08-16.65Q163.48-14.35 163.75-12.25 164.03-10.15 164.2-8.3 164.38-6.45 164.53-4.85L164.53-4.85 164.88-4.85Q164.98-7.95 165.33-10.9 165.68-13.85 166.13-16.65L166.13-16.65 168.93-32.05Q169.03-32.75 169.2-33.08 169.38-33.4 170.08-33.4L170.08-33.4 172.03-33.4Q172.93-33.4 173.03-33.05 173.13-32.7 173.03-32.15L173.03-32.15 171.48-27.7Q171.48-27.7 171.38-26.55 171.28-25.4 171.08-23.55 170.88-21.7 170.6-19.55 170.33-17.4 170.08-15.38 169.83-13.35 169.58-11.9L169.58-11.9 167.33 0.1Q166.23 0.2 165.38 0.25 164.53 0.3 163.08 0.3ZM194.72 0.5L194.72 0.5Q193.32 0.5 192.05 0.28 190.77 0.05 189.75-0.73 188.72-1.5 188.15-3.05 187.57-4.6 187.57-7.15L187.57-7.15Q187.57-9.75 188.1-11.38 188.62-13 189.55-13.88 190.47-14.75 191.6-15.08 192.72-15.4 193.92-15.4L193.92-15.4Q194.67-15.4 195.7-15.25 196.72-15.1 197.42-14.7L197.42-14.7Q197.42-14.7 197.42-15.35 197.42-16 197.42-16.9 197.42-17.8 197.42-18.5L197.42-18.5Q197.42-19.5 197.12-20.05 196.82-20.6 196.22-20.85 195.62-21.1 194.67-21.1L194.67-21.1Q192.92-21.1 191.17-20.78 189.42-20.45 188.27-20L188.27-20Q187.87-20.7 187.75-21.4 187.62-22.1 187.62-22.6L187.62-22.6Q187.62-23 187.77-23.45 187.92-23.9 188.22-24.1L188.22-24.1Q188.82-24.5 190.87-25 192.92-25.5 195.82-25.5L195.82-25.5Q199.12-25.5 200.57-24.15 202.02-22.8 202.02-19.4L202.02-19.4 202.02-16.85Q202.02-14 202-11.08 201.97-8.15 201.92-5.6 201.87-3.05 201.77-1.15L201.77-1.15Q200.67-0.5 198.87 0 197.07 0.5 194.72 0.5ZM195.07-3.3L195.07-3.3Q195.77-3.3 196.4-3.53 197.02-3.75 197.27-4L197.27-4Q197.37-4.75 197.4-6.05 197.42-7.35 197.42-8.83 197.42-10.3 197.42-11.55L197.42-11.55Q197.02-11.8 196.45-11.9 195.87-12 195.42-12L195.42-12Q194.82-12 194.25-11.83 193.67-11.65 193.25-11.13 192.82-10.6 192.6-9.7 192.37-8.8 192.37-7.3L192.37-7.3Q192.37-6.1 192.55-5.33 192.72-4.55 193.07-4.1 193.42-3.65 193.95-3.48 194.47-3.3 195.07-3.3ZM205.77 0L205.77 0 205.77-23.8Q206.72-24.25 208.04-24.63 209.37-25 210.84-25.25 212.32-25.5 213.62-25.5L213.62-25.5Q216.27-25.5 217.79-24.88 219.32-24.25 220.02-22.8 220.72-21.35 220.72-18.9L220.72-18.9 220.72-0.9Q220.72-0.45 220.5-0.28 220.27-0.1 219.29-0.05 218.32 0 216.02 0L216.02 0 216.02-17.5Q216.02-19.75 215.54-20.65 215.07-21.55 213.47-21.55L213.47-21.55Q212.77-21.55 211.9-21.35 211.02-21.15 210.32-20.75L210.32-20.75 210.32-0.9Q210.32-0.45 210.12-0.28 209.92-0.1 208.97-0.05 208.02 0 205.77 0ZM231.42 0.5L231.42 0.5Q229.27 0.5 228.22-0.38 227.17-1.25 226.84-2.93 226.52-4.6 226.52-6.8L226.52-6.8 226.52-21.1 223.22-21.1Q223.22-22.85 223.27-23.68 223.32-24.5 223.54-24.75 223.77-25 224.22-25L224.22-25 226.52-25 226.52-32.5Q226.52-33.25 226.89-33.55 227.27-33.85 228.24-33.93 229.22-34 231.07-34L231.07-34 231.07-25 235.87-25Q235.87-23.25 235.82-22.43 235.77-21.6 235.59-21.35 235.42-21.1 234.97-21.1L234.97-21.1 231.07-21.1 231.07-6.85Q231.07-5.95 231.14-5.15 231.22-4.35 231.54-3.88 231.87-3.4 232.67-3.4L232.67-3.4Q233.52-3.4 234.14-3.58 234.77-3.75 235.52-4.1L235.52-4.1Q235.62-3.7 235.72-3.15 235.82-2.6 235.82-1.9L235.82-1.9Q235.82-0.9 235.12-0.38 234.42 0.15 233.42 0.33 232.42 0.5 231.42 0.5Z" opacity="1" transform="matrix(1,0,0,1,0,0)" fill="#000000" class="slogan-text-1" data-fill-palette-color="secondary" id="text-1"></path></svg></g></svg></g></svg></g></svg></g><g transform="matrix(1,0,0,1,99.745395497762,0)"><svg viewBox="0 0 196.02920900447597 182.8773807254435" height="182.8773807254435" width="196.02920900447597"><g><svg xmlns="http://www.w3.org/2000/svg" xmlns:xlink="http://www.w3.org/1999/xlink" version="1.1" x="0" y="0" viewBox="4.999925576047142 8.019555079511594 89.99969402492745 83.9615095778623" enable-background="new 0 0 100 100" xml:space="preserve" height="182.8773807254435" width="196.02920900447597" class="icon-icon-0" data-fill-palette-color="accent" id="icon-0"><path d="M72.795 10.718c-1.78-0.575-3.636-0.889-5.521-1.03C59.778 7.029 50.767 7.963 43.336 9.62c-9.887 2.206-18.35 8.354-24.86 15.944-2.634 2.413-5.03 5.071-7.117 7.921C-1.423 50.939 5.801 80.515 26.432 88.617c19.411 7.624 46.163 2.186 58.581-15.263 0.495-0.696 0.947-1.425 1.377-2.163 1.377-1.739 2.621-3.587 3.702-5.545C100.319 47.123 94.566 17.753 72.795 10.718zM65.336 82.759c-12.428 5.146-27.358 5.523-39.199-1.311-5.899-3.404-10.215-9.072-13.564-14.862-4.201-7.265-3.984-15.312-1.425-23.066 1.835-5.564 4.944-10.823 8.855-15.431 4.317-3.919 9.352-7.103 14.347-9.442 6.281-2.939 13.25-4.168 20.049-5.183 4.349-0.648 8.647-1.025 12.816-0.599 1.448 0.6 2.811 1.335 4.049 2.235 4.334 4.185 9.808 6.796 13.396 11.853 5.394 7.599 6.062 16.21 4.636 25.132-0.982 6.131-2.506 12.021-5.469 17.479C79.073 75.373 72.567 79.766 65.336 82.759zM43.896 12.415c1.821-0.49 3.711-0.891 5.64-1.167C47.644 11.583 45.763 11.968 43.896 12.415zM85.117 22.805c-1.098-1.188-2.287-2.253-3.53-3.246-0.002-0.261-0.076-0.525-0.231-0.779C82.764 19.989 84.012 21.34 85.117 22.805zM26.343 85.365c-4.934-2.178-8.961-5.863-11.989-10.344 4.091 4.963 9.354 9.06 14.708 11.222 1.319 0.533 2.668 0.998 4.038 1.398C30.766 87.065 28.498 86.317 26.343 85.365zM32.712 51.884c-1.41 0.82-3.291-0.047-3.849-1.983-0.029-0.098-0.039-0.206-0.065-0.304-0.295-0.549-0.511-1.132-0.64-1.613-0.621-2.305-0.521-6.134 1.555-7.737 1.366-1.056 2.48-0.52 3.252 0.518 0.02 0.015 0.041 0.03 0.062 0.045 0.006 0.004 0.012 0.005 0.018 0.009 1.26 0.744 1.823 2.631 2.12 3.956C35.688 47.117 35.974 51.501 32.712 51.884zM70.428 48.523c-0.594 0.514-1.296 0.832-2.01 0.959-0.812 0.293-1.668 0.222-2.342-0.333-0.054-0.029-0.104-0.062-0.156-0.092-0.024-0.014-0.05-0.03-0.075-0.044-0.05-0.032-0.098-0.064-0.146-0.1-0.083-0.057-0.162-0.12-0.237-0.19-0.063-0.055-0.121-0.115-0.179-0.175-0.014-0.015-0.027-0.028-0.041-0.044-0.362-0.389-0.65-0.881-0.817-1.491-0.247-0.901-0.292-1.915-0.164-2.926 0.105-1.643 0.558-3.317 1.213-4.547 0.178-0.33 0.473-0.537 0.803-0.642 0.038-0.037 0.073-0.081 0.113-0.118 2.13-1.883 5.012-0.464 5.72 2.084C72.771 43.246 72.429 46.796 70.428 48.523zM63.754 56.686c-2.224 5.644-9.708 11.005-15.927 10.346-4.495-0.476-9.973-2.356-10.026-7.674-0.02-1.912 2.943-1.91 2.962 0 0.039 3.782 5.69 5.061 8.708 4.727 4.174-0.461 9.809-4.077 11.427-8.186C61.588 54.143 64.454 54.906 63.754 56.686z" fill="#000000" data-fill-palette-color="accent"></path></svg></g></svg></g><g></g></svg></g><defs></defs></svg><rect width="294.44725727268894" height="247.2" fill="none" stroke="none" visibility="hidden"></rect></g></svg></g></svg>